<?xml version="1.0" standalone="no"?>
<!DOCTYPE svg PUBLIC "-//W3C//DTD SVG 20010904//EN"
 "http://www.w3.org/TR/2001/REC-SVG-20010904/DTD/svg10.dtd">
<svg version="1.0" xmlns="http://www.w3.org/2000/svg"
 width="227.000000pt" height="227.000000pt" viewBox="0 0 227.000000 227.000000"
 preserveAspectRatio="xMidYMid meet">
<metadata>
Created by potrace 1.14, written by Peter Selinger 2001-2017
</metadata>
<g transform="translate(0.000000,227.000000) scale(0.100000,-0.100000)"
fill="#000000" stroke="none">
<path d="M697 2146 c-164 -58 -319 -202 -368 -342 -36 -101 -15 -204 57 -278
22 -23 24 -28 9 -22 -11 5 -52 11 -91 13 -58 4 -77 2 -110 -15 -110 -57 -164
-174 -164 -359 0 -202 89 -383 217 -443 40 -19 60 -22 125 -18 74 4 76 4 54
-13 -12 -9 -35 -41 -51 -71 -96 -173 48 -376 335 -474 40 -14 83 -19 160 -19
95 0 110 3 163 29 66 32 112 86 130 153 l11 43 19 -61 c64 -209 310 -228 555
-44 121 91 202 224 202 333 0 71 -16 116 -61 173 l-31 39 27 -10 c14 -5 54
-10 88 -10 161 0 260 139 260 365 -1 275 -134 475 -317 477 -29 0 -62 -3 -75
-7 -20 -6 -18 0 17 44 51 64 66 109 59 178 -18 176 -255 346 -503 360 -155 9
-249 -41 -305 -162 -16 -33 -28 -51 -29 -40 -1 32 -45 118 -76 147 -68 64
-186 76 -307 34z m192 3 c40 -8 49 -14 44 -27 -6 -15 -5 -15 10 -3 11 9 17 10
17 2 0 -6 6 -11 13 -11 8 0 22 -9 33 -21 16 -18 16 -23 4 -42 -12 -20 -12 -21
4 -8 15 13 19 13 26 1 20 -32 39 -152 45 -277 l7 -132 -29 -6 c-57 -12 -139
-38 -175 -56 -45 -23 -152 -121 -175 -160 -10 -16 -23 -29 -29 -29 -18 0 -178
75 -219 103 -19 13 -32 27 -27 32 4 5 2 5 -5 2 -17 -10 -81 70 -94 117 -16 58
-7 156 14 168 9 5 17 14 17 21 0 7 -4 6 -10 -3 -20 -32 -9 7 13 42 39 64 104
127 127 123 11 -2 20 1 20 7 0 6 -8 7 -17 3 -10 -3 -3 10 16 29 19 20 41 36
49 36 12 0 12 -3 2 -15 -10 -12 -10 -18 0 -29 14 -18 37 -11 45 14 4 13 12 17
23 13 9 -3 13 -2 9 2 -4 5 -20 9 -34 10 -34 0 -40 19 -10 32 16 8 29 8 43 0
18 -10 18 -9 4 9 -8 10 -11 16 -6 12 5 -4 15 -1 23 7 17 17 33 19 33 5 0 -5 9
-10 20 -10 13 0 20 7 20 19 0 16 8 21 43 24 23 2 45 4 49 5 4 1 29 -3 57 -9z
m502 1 c12 -7 19 -7 19 -1 0 6 11 6 28 2 15 -4 33 -6 41 -3 8 3 11 0 7 -7 -4
-7 -2 -9 7 -5 8 3 31 -2 52 -10 21 -9 46 -16 56 -16 11 0 19 -5 19 -11 0 -5 5
-7 12 -3 7 5 8 3 2 -7 -12 -20 -14 -39 -3 -39 5 0 23 -15 40 -34 26 -29 34
-33 49 -24 18 11 17 38 -2 38 -5 0 -6 -4 -3 -10 10 -16 -5 -12 -23 7 -22 21
-26 59 -5 41 11 -9 11 -13 1 -19 -9 -6 -6 -9 10 -9 16 0 21 4 16 12 -15 24 94
-73 124 -111 43 -53 65 -110 51 -127 -9 -11 -8 -14 0 -14 14 0 8 -89 -6 -99
-4 -3 -9 -12 -11 -19 -5 -25 -57 -82 -69 -77 -7 2 -12 -1 -10 -7 2 -12 -238
-178 -258 -178 -5 0 -29 22 -52 48 -69 81 -191 143 -310 158 -51 6 -53 8 -60
43 -4 20 -7 92 -8 161 0 102 4 133 19 167 10 24 22 40 26 38 4 -3 7 3 6 12 -2
25 78 82 106 76 18 -4 20 -3 8 6 -17 12 -10 14 14 5 9 -3 14 -9 11 -14 -2 -4
8 -5 22 -2 l27 5 -25 10 c-24 10 -23 10 11 17 19 4 36 8 38 9 2 0 12 -4 23 -9z
m-661 -20 c0 -5 -4 -10 -10 -10 -5 0 -10 5 -10 10 0 6 5 10 10 10 6 0 10 -4
10 -10z m926 -55 c-1 -8 -6 -18 -11 -22 -4 -4 -5 -2 -1 5 4 7 2 12 -6 12 -9 0
-9 3 2 10 19 12 19 13 16 -5z m-1061 -35 c3 -5 -1 -10 -10 -10 -9 0 -13 5 -10
10 3 6 8 10 10 10 2 0 7 -4 10 -10z m668 -450 c245 -76 392 -341 332 -598 -24
-100 -63 -170 -137 -245 -149 -151 -350 -185 -545 -93 -169 81 -273 250 -274
446 -1 185 83 345 231 440 110 70 264 90 393 50z m697 -23 c0 -4 4 -6 9 -2 15
9 82 -27 77 -41 -3 -9 1 -11 11 -7 11 4 14 2 9 -5 -4 -7 -1 -12 8 -12 37 0
140 -199 120 -231 -4 -6 -1 -15 6 -19 8 -5 12 -39 13 -101 0 -124 -5 -165 -21
-161 -10 2 -11 -2 -4 -14 14 -25 -8 -76 -30 -70 -10 2 -15 0 -12 -5 3 -5 -2
-16 -10 -25 -15 -14 -16 -14 -17 3 -1 10 0 22 1 28 1 5 -2 7 -6 2 -10 -10 -12
-57 -2 -51 4 3 8 0 8 -6 0 -6 12 2 26 17 17 19 22 22 16 8 -15 -30 -49 -58
-65 -52 -7 3 -14 -1 -14 -9 0 -7 5 -11 11 -8 6 3 3 -1 -8 -10 -49 -40 -159
-40 -252 -1 -19 8 -38 15 -42 17 -4 1 -50 26 -102 54 -58 32 -94 58 -91 66 41
155 29 302 -36 425 -10 18 -15 34 -13 36 21 19 182 128 210 142 71 37 200 58
200 32z m-1607 -67 c10 0 16 -4 13 -9 -4 -5 3 -7 13 -4 17 4 184 -73 268 -124
29 -17 30 -20 18 -44 -7 -13 -21 -54 -30 -89 -28 -107 -15 -231 40 -362 5 -13
-14 -30 -84 -78 -51 -33 -97 -58 -103 -54 -7 5 -8 3 -3 -6 6 -10 4 -12 -8 -7
-10 4 -17 2 -17 -4 0 -6 -9 -9 -20 -6 -11 3 -18 2 -15 -3 5 -9 -43 -20 -87
-20 -18 0 -27 4 -23 10 4 7 -3 9 -22 5 -22 -5 -25 -4 -13 5 13 9 12 11 -5 9
-11 -1 -25 -1 -32 0 -19 2 -78 63 -78 81 0 8 -6 15 -14 15 -7 0 -20 10 -28 23
-11 15 -12 22 -4 22 7 0 9 5 6 10 -4 6 -10 8 -15 5 -4 -3 -11 2 -14 11 -3 8
-2 12 4 9 6 -3 10 -2 10 4 0 5 -5 13 -11 17 -7 4 -8 19 -5 37 6 30 6 30 -10
12 -12 -16 -15 -16 -10 -3 3 9 1 18 -4 20 -5 2 -13 39 -19 82 -8 68 -7 81 7
95 15 15 15 14 9 -2 -9 -24 2 -69 16 -60 6 4 8 -3 4 -18 -3 -13 -2 -31 3 -39
13 -21 4 87 -11 122 -9 22 -9 35 0 54 13 30 14 37 2 30 -5 -4 -11 0 -14 6 -2
7 -4 -6 -4 -30 0 -24 -6 -49 -12 -55 -9 -9 -11 -2 -6 33 10 72 15 91 23 86 5
-3 7 7 5 22 -4 31 37 108 56 104 7 -1 10 2 6 8 -9 15 52 73 71 66 9 -4 12 -2
8 5 -4 7 0 9 14 5 11 -4 23 -2 27 5 5 7 21 9 44 5 20 -3 44 -6 54 -6z m1342
-659 c114 -54 189 -107 180 -128 -2 -8 -1 -12 4 -9 13 9 39 -37 51 -88 12 -55
3 -106 -19 -107 -14 -1 -14 -2 1 -6 14 -3 15 -9 6 -34 -5 -16 -14 -29 -20 -29
-5 0 -6 -4 -3 -10 8 -13 -19 -52 -30 -42 -5 4 -5 2 -2 -4 10 -17 -19 -49 -45
-49 -13 0 -24 -6 -24 -12 -1 -7 -3 -16 -4 -20 -1 -5 -2 -12 -1 -17 3 -15 -22
-26 -44 -20 -16 4 -17 3 -5 -5 14 -10 7 -15 -13 -12 -5 1 -6 -3 -2 -8 9 -16
-67 -61 -94 -56 -17 3 -24 -1 -28 -15 -3 -11 -11 -16 -19 -13 -8 3 -14 0 -14
-6 0 -13 -77 -34 -103 -27 -11 3 -28 1 -38 -5 -11 -6 -20 -6 -24 1 -3 5 -19 8
-35 6 -15 -2 -34 1 -42 6 -10 8 -9 9 4 4 10 -3 20 -1 23 4 7 12 -17 19 -36 9
-11 -5 -16 -3 -16 6 0 8 3 12 7 10 4 -2 16 2 26 10 17 13 16 14 -13 6 -17 -5
-35 -6 -39 -3 -4 4 -4 1 0 -5 13 -23 -6 -14 -30 15 -46 52 -65 126 -71 267
l-6 130 67 19 c124 35 235 118 303 229 20 31 38 57 40 57 2 0 51 -22 108 -49z
m-954 -70 c84 -104 235 -181 353 -181 52 0 54 -1 60 -31 3 -17 6 -78 6 -135 0
-88 -4 -111 -24 -156 -28 -61 -50 -88 -89 -113 -21 -14 -31 -15 -40 -6 -7 7
-8 11 0 11 6 0 13 6 16 13 3 8 -8 12 -37 13 -29 2 -35 0 -21 -6 11 -4 23 -6
28 -3 4 2 7 -1 7 -6 0 -6 -6 -11 -12 -12 -10 0 -10 -2 0 -6 20 -8 13 -25 -8
-18 -11 4 -20 2 -20 -4 0 -16 -165 -14 -219 3 -26 7 -40 16 -33 20 7 4 16 5
20 2 4 -2 14 -1 22 4 12 7 10 9 -5 8 -11 0 -29 3 -40 7 -16 5 -17 5 -5 -4 8
-6 12 -11 8 -11 -3 0 -15 -3 -25 -6 -15 -5 -16 -4 -3 6 12 10 11 11 -8 7 -30
-7 -54 2 -45 16 3 6 1 7 -5 3 -16 -10 -54 12 -46 26 5 8 1 9 -10 5 -16 -6 -16
-5 -1 15 8 13 15 33 15 45 0 30 -38 31 -63 3 -9 -11 -21 -20 -26 -20 -16 0
-82 84 -76 98 2 7 1 11 -3 9 -4 -3 -13 1 -19 9 -10 9 -10 15 -1 20 7 5 6 11
-7 20 -10 8 -19 31 -23 59 -6 56 17 114 67 169 35 38 250 188 262 184 3 -2 26
-27 50 -57z m1073 -450 c3 -5 -2 -15 -12 -22 -15 -12 -16 -12 -5 2 7 9 10 19
6 22 -3 4 -4 7 0 7 3 0 8 -4 11 -9z m-1260 -67 c9 -24 8 -26 -16 -22 -12 2
-23 10 -25 18 -4 13 -3 13 6 0 9 -13 11 -13 11 3 0 21 16 22 24 1z m1086 -80
c0 -8 -19 -13 -24 -6 -3 5 1 9 9 9 8 0 15 -2 15 -3z"/>
<path d="M880 2129 c0 -8 -17 -9 -55 -4 -47 6 -54 4 -49 -9 7 -19 2 -19 81 -5
34 6 60 15 57 20 -8 13 -34 11 -34 -2z"/>
<path d="M983 2085 c0 -8 4 -12 9 -9 5 3 6 10 3 15 -9 13 -12 11 -12 -6z"/>
<path d="M615 2080 c-3 -5 -1 -10 4 -10 6 0 11 5 11 10 0 6 -2 10 -4 10 -3 0
-8 -4 -11 -10z"/>
<path d="M541 2036 c-6 -8 -8 -27 -5 -46 7 -30 6 -32 -17 -25 -18 5 -21 4 -9
-4 23 -17 37 -13 44 12 5 18 8 20 16 7 7 -11 10 -12 10 -2 0 8 -9 16 -20 19
-23 6 -24 8 -10 34 12 22 8 25 -9 5z"/>
<path d="M479 1963 c-1 -5 -1 -11 0 -15 0 -5 -5 -8 -13 -8 -18 0 -37 -23 -39
-49 -1 -15 -4 -17 -14 -9 -11 9 -12 6 -5 -13 15 -39 37 -30 37 15 0 24 5 41
14 44 9 3 11 -1 6 -17 -4 -12 -2 -21 4 -21 11 0 13 5 16 53 2 24 -3 39 -6 20z"/>
<path d="M390 1829 c0 -5 5 -7 10 -4 6 3 10 8 10 11 0 2 -4 4 -10 4 -5 0 -10
-5 -10 -11z"/>
<path d="M406 1803 c-6 -14 -5 -15 5 -6 7 7 10 15 7 18 -3 3 -9 -2 -12 -12z"/>
<path d="M1405 2120 c-15 -6 -7 -9 29 -9 27 -1 47 1 45 3 -11 9 -56 13 -74 6z"/>
<path d="M1505 2120 c-3 -5 -1 -10 4 -10 6 0 11 5 11 10 0 6 -2 10 -4 10 -3 0
-8 -4 -11 -10z"/>
<path d="M1176 2048 c3 -5 10 -6 15 -3 13 9 11 12 -6 12 -8 0 -12 -4 -9 -9z"/>
<path d="M1750 1975 c0 -8 8 -24 18 -35 9 -11 25 -29 34 -39 9 -11 14 -22 11
-25 -4 -3 -2 -6 3 -6 6 0 20 -9 32 -20 16 -15 22 -17 22 -7 0 8 -10 19 -22 26
l-23 11 24 -6 c17 -4 22 -2 19 7 -3 8 -13 13 -23 11 -12 -3 -16 1 -12 12 4 10
1 13 -7 10 -19 -7 -49 25 -37 40 6 8 6 17 -1 26 -8 12 -9 12 -4 -2 3 -10 1
-18 -4 -18 -6 0 -10 7 -10 15 0 8 -4 15 -10 15 -5 0 -10 -7 -10 -15z"/>
<path d="M1806 1952 c-2 -4 -1 -14 3 -21 6 -9 11 -10 15 -2 4 6 2 11 -4 11 -6
0 -8 5 -5 10 3 6 4 10 1 10 -3 0 -7 -4 -10 -8z"/>
<path d="M2020 1484 c0 -8 5 -12 10 -9 6 4 8 11 5 16 -9 14 -15 11 -15 -7z"/>
<path d="M2115 1440 c10 -11 20 -20 23 -20 3 0 -3 9 -13 20 -10 11 -20 20 -23
20 -3 0 3 -9 13 -20z"/>
<path d="M2135 1400 c3 -5 8 -10 11 -10 2 0 4 5 4 10 0 6 -5 10 -11 10 -5 0
-7 -4 -4 -10z"/>
<path d="M2141 1324 c0 -11 3 -14 6 -6 3 7 2 16 -1 19 -3 4 -6 -2 -5 -13z"/>
<path d="M2161 1324 c0 -11 3 -14 6 -6 3 7 2 16 -1 19 -3 4 -6 -2 -5 -13z"/>
<path d="M2170 1271 c0 -5 -3 -16 -6 -25 -4 -11 -1 -16 10 -16 9 0 16 -5 16
-12 0 -6 3 -8 6 -5 4 4 1 13 -6 22 -7 8 -10 22 -6 30 3 8 1 15 -4 15 -6 0 -10
-4 -10 -9z"/>
<path d="M2184 1133 c1 -43 5 -72 11 -70 10 4 8 69 -4 114 -6 19 -8 6 -7 -44z"/>
<path d="M2181 1024 c0 -11 3 -14 6 -6 3 7 2 16 -1 19 -3 4 -6 -2 -5 -13z"/>
<path d="M2025 820 c-3 -6 1 -7 9 -4 18 7 21 14 7 14 -6 0 -13 -4 -16 -10z"/>
<path d="M116 1385 c4 -8 10 -15 14 -15 4 0 10 7 14 15 4 10 -1 15 -14 15 -13
0 -18 -5 -14 -15z"/>
<path d="M88 1315 c2 -14 6 -25 8 -25 2 0 4 11 4 25 0 14 -4 25 -9 25 -4 0 -6
-11 -3 -25z"/>
<path d="M80 1000 c0 -5 5 -10 11 -10 5 0 7 5 4 10 -3 6 -8 10 -11 10 -2 0 -4
-4 -4 -10z"/>
<path d="M144 866 c0 -13 4 -22 9 -19 10 6 9 31 -2 37 -5 3 -8 -5 -7 -18z"/>
<path d="M253 756 c1 -11 9 -21 17 -23 10 -3 11 -2 4 4 -6 4 -14 15 -17 23 -5
11 -6 9 -4 -4z"/>
<path d="M1902 540 c0 -14 2 -19 5 -12 2 6 2 18 0 25 -3 6 -5 1 -5 -13z"/>
<path d="M1869 485 c-1 -11 -2 -28 -1 -37 1 -10 -2 -17 -6 -17 -21 4 -30 -4
-36 -31 -7 -39 -7 -40 1 -42 4 -2 10 11 13 27 3 18 11 30 20 30 15 0 45 54 35
63 -3 3 -5 -1 -6 -9 -1 -8 -5 -3 -9 11 -7 22 -8 22 -11 5z"/>
<path d="M1680 270 c-9 -6 -10 -10 -3 -10 6 0 15 5 18 10 8 12 4 12 -15 0z"/>
<path d="M1260 249 c0 -11 4 -18 10 -14 5 3 7 12 3 20 -7 21 -13 19 -13 -6z"/>
<path d="M1622 255 c-1 -11 3 -27 8 -35 5 -8 10 -11 10 -6 0 5 6 3 14 -3 9 -7
17 -8 20 -3 3 6 -5 13 -18 16 -15 4 -26 15 -29 29 -4 19 -4 19 -5 2z"/>
<path d="M1647 264 c-11 -11 3 -24 26 -23 15 0 17 2 7 6 -8 3 -18 10 -21 15
-3 4 -8 5 -12 2z"/>
<path d="M1270 215 c-7 -9 -11 -18 -8 -20 3 -3 11 1 18 10 7 9 11 18 8 20 -3
3 -11 -1 -18 -10z"/>
<path d="M1400 175 c0 -8 9 -15 20 -15 11 0 20 7 20 15 0 8 -9 15 -20 15 -11
0 -20 -7 -20 -15z"/>
<path d="M1475 180 c3 -5 1 -10 -6 -10 -7 0 -10 -2 -7 -5 8 -9 38 6 32 16 -3
5 -10 9 -15 9 -6 0 -7 -4 -4 -10z"/>
<path d="M1529 178 c16 -21 22 -22 45 -5 16 12 16 13 -4 14 -11 1 -18 -2 -15
-8 9 -13 -9 -11 -25 4 -12 10 -12 9 -1 -5z"/>
<path d="M1350 166 c0 -2 7 -6 15 -10 8 -3 15 -1 15 4 0 6 -7 10 -15 10 -8 0
-15 -2 -15 -4z"/>
<path d="M1483 158 c-30 -14 -29 -23 2 -24 15 -1 22 2 18 9 -4 6 4 7 23 3 28
-7 28 -7 9 8 -23 18 -23 18 -52 4z"/>
<path d="M416 621 c-3 -5 2 -15 12 -22 15 -12 16 -12 5 2 -7 9 -10 19 -6 22 3
4 4 7 0 7 -3 0 -8 -4 -11 -9z"/>
<path d="M440 616 c0 -3 9 -10 20 -16 11 -6 20 -8 20 -6 0 3 -9 10 -20 16 -11
6 -20 8 -20 6z"/>
<path d="M393 485 c0 -27 2 -38 4 -22 2 15 2 37 0 50 -2 12 -4 0 -4 -28z"/>
<path d="M406 417 c3 -10 9 -15 12 -12 3 3 0 11 -7 18 -10 9 -11 8 -5 -6z"/>
<path d="M435 339 c-4 -5 2 -6 12 -2 16 6 16 5 4 -10 -7 -9 -9 -17 -5 -17 5 0
14 8 20 18 10 15 8 18 -7 19 -10 1 -21 -2 -24 -8z"/>
<path d="M470 305 c-11 -13 -10 -14 5 -9 14 6 16 4 10 -7 -6 -11 -5 -12 6 -1
9 8 10 15 3 22 -8 8 -15 6 -24 -5z"/>
<path d="M1096 261 c-4 -5 -2 -12 3 -15 5 -4 12 -2 15 3 4 5 2 12 -3 15 -5 4
-12 2 -15 -3z"/>
<path d="M663 193 c4 -3 33 -7 64 -8 39 -1 50 0 33 5 -31 10 -106 12 -97 3z"/>
<path d="M810 181 c0 -4 11 -6 25 -3 14 2 25 6 25 8 0 2 -11 4 -25 4 -14 0
-25 -4 -25 -9z"/>
<path d="M1040 169 c-22 -18 -22 -19 -3 -10 12 6 25 16 28 21 9 15 3 12 -25
-11z"/>
<path d="M908 173 c6 -2 18 -2 25 0 6 3 1 5 -13 5 -14 0 -19 -2 -12 -5z"/>
<path d="M780 160 c0 -5 6 -10 13 -10 8 0 7 -4 -3 -10 -13 -8 -13 -10 2 -10
26 0 31 18 8 30 -13 7 -20 7 -20 0z"/>
<path d="M885 151 c-17 -7 -16 -9 9 -15 16 -4 31 -5 34 -1 3 3 -2 5 -12 5 -9
0 -14 5 -11 10 7 11 7 11 -20 1z"/>
</g>
</svg>
